<svg xmlns="http://www.w3.org/2000/svg" style="display:none">
  <symbol xmlns="http://www.w3.org/2000/svg" id="sbx-icon-search-5" viewBox="0 0 40 41">
    <path d="M25.098 27.967c-2.63 2.023-5.925 3.227-9.5 3.227C6.982 31.194 0 24.21 0 15.597S6.983 0 15.597 0s15.597 6.983 15.597 15.597c0 4.106-1.587 7.842-4.18 10.627l1.343 1.344.025-.025c.78-.778 2.043-.775 2.822.004l7.814 7.813c.78.78.78 2.047.004 2.823l-1.88 1.878c-.777.78-2.042.777-2.82-.002l-7.815-7.814c-.78-.78-.78-2.046-.003-2.822l.024-.025-1.43-1.43zm-9.5.627c7.177 0 12.996-5.82 12.996-12.997 0-7.178-5.82-12.998-12.997-12.998C8.42 2.6 2.6 8.42 2.6 15.596c0 7.178 5.82 12.997 12.997 12.997z"
    fill-rule="evenodd" />
  </symbol>
  <symbol xmlns="http://www.w3.org/2000/svg" id="sbx-icon-clear-4" viewBox="0 0 20 20">
    <path d="M11.664 9.877l4.485 4.485-1.542 1.54-4.485-4.485-4.485 4.485-1.54-1.54 4.485-4.485-4.485-4.485 1.54-1.54 4.485 4.484 4.485-4.485 1.54 1.542-4.484 4.485zM10 20c5.523 0 10-4.477 10-10S15.523 0 10 0 0 4.477 0 10s4.477 10 10 10z" fill-rule="evenodd"
    />
  </symbol>
</svg>